<?xml version="1.0" encoding="utf-8"?>
<!-- Generator: Adobe Illustrator 26.2.1, SVG Export Plug-In . SVG Version: 6.00 Build 0)  -->
<svg version="1.1" id="Layer_1" xmlns="http://www.w3.org/2000/svg" xmlns:xlink="http://www.w3.org/1999/xlink" x="0px" y="0px"
	 viewBox="0 0 1100 1100" style="enable-background:new 0 0 1100 1100;" xml:space="preserve">
<style type="text/css">
	.st0{fill:#45A5AE;}
</style>
<g>
	<g>
		<g>
			<path class="st0" d="M636.44,610.88c-7.24,0-14.05-2.81-19.16-7.9L450.94,436.67c-10.53-10.63-10.52-27.82,0-38.34l158.32-158.31
				c5.12-5.1,11.93-7.91,19.18-7.91c7.25,0,14.06,2.81,19.16,7.91l166.33,166.3c5.11,5.09,7.93,11.9,7.93,19.17
				c0,7.27-2.82,14.08-7.95,19.18l-158.33,158.3C650.49,608.07,643.69,610.88,636.44,610.88z M628.44,245.18
				c-3.77,0-7.31,1.45-9.96,4.09L460.18,407.57c-5.45,5.45-5.44,14.37,0.02,19.88l166.32,166.28c2.64,2.63,6.16,4.08,9.93,4.08
				c3.76,0,7.27-1.45,9.9-4.08l158.35-158.31c2.65-2.64,4.11-6.16,4.11-9.93c0-3.77-1.46-7.29-4.09-9.92L638.36,249.25
				C635.73,246.62,632.2,245.18,628.44,245.18z"/>
		</g>
		<g>
			<path class="st0" d="M797.74,404.03L797.74,404.03c-2.99,0-5.8-1.19-7.9-3.33L653.17,264.07c-4.32-4.32-4.32-11.35,0-15.67
				l34.89-34.83c2.01-2.08,4.81-3.27,7.8-3.27c2.99,0,5.79,1.19,7.88,3.36l136.66,136.6c2.08,2.08,3.23,4.86,3.23,7.84
				c0,2.97-1.15,5.76-3.23,7.84l-34.88,34.88C803.45,402.88,800.69,404.03,797.74,404.03z M663.81,256.23l133.92,133.88l32.02-32.02
				l-133.9-133.84L663.81,256.23z"/>
		</g>
		<g>
			<path class="st0" d="M857.08,379.91c-3.58,0-6.93-1.4-9.45-3.94L677.95,206.32c-5.2-5.28-5.18-13.73,0.03-18.88l52.27-52.27
				c2.48-2.51,5.84-3.91,9.43-3.91c3.59,0,6.95,1.4,9.46,3.94l169.68,169.65c5.15,5.21,5.15,13.65,0.03,18.83l-52.32,52.32
				C864,378.52,860.64,379.91,857.08,379.91z M739.53,144.4c-0.03,0-0.04,0-0.05,0l-52.29,52.29c-0.06,0.06-0.09,0.28,0.03,0.41
				L856.9,366.75l0.18,0.09c0.12,0,0.18-0.06,0.2-0.09l52.29-52.29c0.09-0.09,0.09-0.28-0.03-0.4L739.86,144.41
				C739.85,144.41,739.63,144.4,739.53,144.4z"/>
		</g>
		<g>
			<path class="st0" d="M569.03,632.71c-2.97,0-5.74-1.15-7.82-3.24L424.5,492.73c-2.08-2.04-3.25-4.83-3.25-7.81
				c0-2.93,1.14-5.71,3.21-7.82l34.9-34.86c2.01-2.08,4.81-3.27,7.82-3.27c3,0,5.81,1.19,7.9,3.36l136.67,136.6
				c2.08,2.08,3.23,4.87,3.23,7.84c0,2.97-1.14,5.76-3.23,7.84l-34.88,34.88C574.77,631.56,571.99,632.71,569.03,632.71z
				 M435.15,484.9l133.89,133.92l32.06-32.06L467.17,452.9L435.15,484.9z"/>
		</g>
		<g>
			<path class="st0" d="M525.2,711.74c-3.55,0-6.9-1.38-9.43-3.91L346.09,538.14c-5.2-5.2-5.2-13.66,0-18.85l52.29-52.29
				c2.59-2.53,5.93-3.89,9.46-3.89c3.55,0,6.89,1.38,9.39,3.88l169.68,169.69c2.54,2.54,3.93,5.93,3.91,9.53
				c-0.02,3.58-1.43,6.9-3.97,9.38l-52.23,52.24C532.1,710.35,528.76,711.74,525.2,711.74z M407.79,476.2
				c-0.1,0-0.16,0.03-0.22,0.09l-52.24,52.23c-0.11,0.11-0.11,0.26,0,0.38l169.68,169.68l0.19,0.09c0.09,0,0.15-0.05,0.19-0.09
				l52.29-52.29c0.09-0.25,0.05-0.32,0-0.38L408,476.23C407.92,476.21,407.85,476.2,407.79,476.2z"/>
		</g>
		<g>
			<path class="st0" d="M977.86,842.52c-1.73,0-3.39-0.69-4.62-1.91L690.97,558.34c-1.23-1.23-1.91-2.89-1.91-4.62
				c0-1.73,0.69-3.39,1.91-4.62l69.09-69.05c2.55-2.55,6.69-2.55,9.24,0l282.23,282.26c2.55,2.55,2.55,6.69,0,9.24l-69.06,69.06
				C981.25,841.83,979.59,842.52,977.86,842.52z M704.84,553.73l273.02,273.02l59.81-59.82L764.68,493.91L704.84,553.73z"/>
		</g>
		<g>
			<path class="st0" d="M531.7,422.8c-1.67,0-3.34-0.64-4.62-1.91c-2.55-2.55-2.55-6.69,0-9.24l141.45-141.49
				c2.56-2.55,6.69-2.55,9.25,0c2.55,2.55,2.55,6.69,0,9.24L536.32,420.88C535.04,422.16,533.37,422.8,531.7,422.8z"/>
		</g>
		<g>
			<path class="st0" d="M593.54,576.56c-1.67,0-3.35-0.64-4.62-1.91c-2.55-2.55-2.55-6.69,0-9.24l110.82-110.76
				c2.56-2.55,6.69-2.55,9.25,0c2.55,2.55,2.55,6.69,0,9.24L598.16,574.65C596.89,575.93,595.21,576.56,593.54,576.56z"/>
		</g>
		<g>
			<path class="st0" d="M725.03,976.02H136.59c-3.61,0-6.53-2.93-6.53-6.54v-54.76c0-33.83,27.51-61.36,61.33-61.36h478.87
				c33.8,0,61.3,27.53,61.3,61.36v54.76C731.56,973.09,728.64,976.02,725.03,976.02z M143.13,962.95h575.37v-48.23
				c0-26.63-21.64-48.29-48.23-48.29H191.39c-26.61,0-48.26,21.66-48.26,48.29V962.95z"/>
		</g>
		<g>
			<path class="st0" d="M613.06,866.43H248.59c-3.61,0-6.53-2.93-6.53-6.54v-54.76c0-33.84,27.5-61.36,61.3-61.36h254.91
				c33.82,0,61.33,27.52,61.33,61.36v54.76C619.6,863.5,616.67,866.43,613.06,866.43z M255.13,853.36h351.4v-48.23
				c0-26.63-21.65-48.3-48.26-48.3H303.36c-26.59,0-48.23,21.67-48.23,48.3V853.36z"/>
		</g>
		<g>
			<path class="st0" d="M725.03,941.59H359.35c-3.61,0-6.53-2.93-6.53-6.54c0-3.61,2.93-6.53,6.53-6.53h365.68
				c3.61,0,6.54,2.93,6.54,6.53C731.56,938.66,728.64,941.59,725.03,941.59z"/>
		</g>
		<g>
			<path class="st0" d="M430.81,811.66H248.59c-3.61,0-6.53-2.93-6.53-6.53c0-3.61,2.92-6.54,6.53-6.54h182.22
				c3.61,0,6.53,2.93,6.53,6.54C437.34,808.74,434.42,811.66,430.81,811.66z"/>
		</g>
		<g>
			<path class="st0" d="M1007.29,813.09c-1.67,0-3.35-0.64-4.62-1.92L887.55,696.07c-2.55-2.55-2.55-6.69,0-9.24
				c2.55-2.56,6.69-2.56,9.24,0l115.11,115.11c2.55,2.55,2.55,6.69,0,9.24C1010.63,812.45,1008.96,813.09,1007.29,813.09z"/>
		</g>
		<g>
			<path class="st0" d="M704.53,1019.48H78c-3.61,0-6.53-2.92-6.53-6.53c0-3.61,2.93-6.54,6.53-6.54h626.53
				c3.61,0,6.53,2.93,6.53,6.54C711.06,1016.55,708.14,1019.48,704.53,1019.48z"/>
		</g>
		<g>
			<path class="st0" d="M878.43,1057.61H444.87c-3.61,0-6.53-2.93-6.53-6.54c0-3.61,2.93-6.53,6.53-6.53h433.56
				c3.61,0,6.53,2.92,6.53,6.53C884.96,1054.69,882.04,1057.61,878.43,1057.61z"/>
		</g>
		<g>
			<path class="st0" d="M977.01,1057.61H922.8c-3.61,0-6.53-2.93-6.53-6.54c0-3.61,2.93-6.53,6.53-6.53h54.21
				c3.61,0,6.54,2.92,6.54,6.53C983.55,1054.69,980.62,1057.61,977.01,1057.61z"/>
		</g>
		<g>
			<path class="st0" d="M258.73,1056.44H53.32c-3.61,0-6.53-2.93-6.53-6.53c0-3.61,2.92-6.54,6.53-6.54h205.41
				c3.61,0,6.53,2.93,6.53,6.54C265.26,1053.51,262.33,1056.44,258.73,1056.44z"/>
		</g>
		<g>
			<path class="st0" d="M136.59,976.02c-3.61,0-6.53-2.93-6.53-6.54V280.23c0-3.61,2.92-6.53,6.53-6.53h293.05
				c3.61,0,6.53,2.92,6.53,6.53v200.93c0,1.44-0.48,2.83-1.34,3.96c1.17,2.48,0.69,5.53-1.4,7.52c-2.57,2.44-6.62,2.4-9.13-0.11
				L408,476.23l-4.99-4.62l4.62,4.62l-52.29,52.29c-0.06,0.06-0.09,0.13-0.09,0.21l79.01,79.09c1.23,1.22,1.91,2.88,1.91,4.62V750.3
				c0,3.61-2.93,6.53-6.53,6.53H303.36c-26.59,0-48.23,21.67-48.23,48.3v54.76c0,3.61-2.92,6.54-6.53,6.54h-57.2
				c-26.61,0-48.26,21.66-48.26,48.29v54.76C143.13,973.09,140.2,976.02,136.59,976.02z M143.13,286.77V876.9
				c11.24-14.32,28.7-23.54,48.26-23.54h50.67v-48.23c0-33.84,27.5-61.36,61.3-61.36h119.75V615.16l-77.01-77.02
				c-2.48-2.42-3.89-5.75-3.91-9.32c-0.02-3.61,1.36-6.99,3.91-9.54l52.29-52.29c2.52-2.52,5.87-3.91,9.43-3.91
				c3.56,0,6.9,1.39,9.43,3.91l5.86,5.87V286.77H143.13z"/>
		</g>
		<g>
			<path class="st0" d="M565.8,757.36c-0.29,0-0.57-0.02-0.85-0.06c-2.36-0.31-4.55-0.47-6.68-0.47H429.64
				c-3.61,0-6.53-2.92-6.53-6.53V612.45c0-2.64,1.59-5.02,4.04-6.04c2.44-1.01,5.25-0.45,7.12,1.42l90.75,90.75l5,4.62l-4.62-4.62
				l35.79-35.79c1.87-1.87,4.68-2.43,7.12-1.41c2.44,1.01,4.04,3.39,4.04,6.04v83.41c0,1.88-0.82,3.67-2.23,4.91
				C568.91,756.78,567.38,757.36,565.8,757.36z M436.17,743.77h122.09c0.33,0,0.67,0,1,0v-60.59l-24.63,24.64
				c-2.53,2.52-5.88,3.91-9.43,3.91c-3.55,0-6.9-1.38-9.43-3.91l-79.6-79.6V743.77z M429.64,487.7c-0.84,0-1.69-0.16-2.5-0.5
				c-2.44-1.01-4.03-3.39-4.03-6.04v-432c0-3.61,2.93-6.53,6.53-6.53H565.8c3.61,0,6.54,2.93,6.54,6.53v243.54
				c0,1.73-0.69,3.39-1.92,4.62L460.18,407.57c-5.45,5.45-5.44,14.37,0.02,19.88l14.53,14.53c2.5,2.5,2.56,6.53,0.13,9.11
				c-1.94,2.06-4.92,2.58-7.38,1.5l-33.23,33.2C433.01,487.04,431.34,487.7,429.64,487.7z M436.17,55.7v409.7l21.76-21.73
				l-6.99-6.99c-10.54-10.63-10.53-27.82,0-38.34L559.27,290V55.7H436.17z"/>
		</g>
		<g>
			<path class="st0" d="M366.43,354.72H136.59c-3.61,0-6.53-2.93-6.53-6.53c0-3.61,2.92-6.53,6.53-6.53h229.84
				c3.61,0,6.53,2.93,6.53,6.53C372.96,351.79,370.04,354.72,366.43,354.72z"/>
		</g>
		<g>
			<path class="st0" d="M523.71,92.66h-94.06c-3.61,0-6.53-2.93-6.53-6.53c0-3.61,2.93-6.53,6.53-6.53h94.06
				c3.61,0,6.53,2.93,6.53,6.53C530.24,89.73,527.31,92.66,523.71,92.66z"/>
		</g>
		<g>
			<path class="st0" d="M97.23,547.72c-3.61,0-6.53-2.93-6.53-6.53V238.59c0-3.61,2.93-6.53,6.53-6.53h182.29
				c3.61,0,6.53,2.92,6.53,6.53c0,3.61-2.93,6.53-6.53,6.53H103.76v296.06C103.76,544.79,100.84,547.72,97.23,547.72z"/>
		</g>
		<g>
			<path class="st0" d="M891.78,408.96c-1.67,0-3.35-0.64-4.62-1.91c-2.55-2.55-2.55-6.69,0-9.24l85.87-85.94L862.15,200.92
				c-2.55-2.55-2.55-6.69,0-9.24c2.55-2.55,6.69-2.55,9.24,0l115.5,115.57c2.55,2.55,2.55,6.69,0,9.24l-90.49,90.56
				C895.13,408.32,893.46,408.96,891.78,408.96z"/>
		</g>
	</g>
</g>
</svg>
